# xmcd
#
# Track frame offsets: 
#        150
#        8663
#        16496
#        40060
#        84834
#        113341
#        133061
#        159667
#
# Disc length: 2316 seconds
#
# Revision: 0
# Processed by: cddbd v1.4PL0 Copyright (c) Steve Scherf et al.
# Submitted via: ExactAudioCopy v0.90b3
#
DISCID=4f090a08
DTITLE=B.B. King - Live In Cook County Jail
DYEAR=1900
DGENRE=Blues
TTITLE0=Introduction
TTITLE1=Everyday I Have The Blues
TTITLE2=How Blue Can You Get
TTITLE3=Worry, Worry
TTITLE4=Medely - 3 O'Clock Blues, Darling You Know I Love You
TTITLE5=Sweet Sixteen
TTITLE6=The Thrill Is Gone
TTITLE7=Please Accept My Love
EXTD=
EXTT0=
EXTT1=
EXTT2=
EXTT3=
EXTT4=
EXTT5=
EXTT6=
EXTT7=
PLAYORDER=
